<svg viewBox="0 0 24 24" xmlns="http://www.w3.org/2000/svg" fill-rule="evenodd" clip-rule="evenodd" stroke-linecap="round" stroke-linejoin="round" stroke-miterlimit="1.5">
  <circle cx="12" cy="15" r="7" fill="none" stroke="#000" stroke-width="2"/>
  <path d="M12 8L8 2H2l5 8M12 8l4-6h6l-5 8M10.5 17l.012.026c.287.597.872.974 1.512.974h.013c.726 0 1.342-.555 1.447-1.304.106-.75-.331-1.466-1.027-1.684L12.418 15l.039-.012c.696-.218 1.133-.934 1.027-1.684-.105-.749-.721-1.304-1.447-1.304h-.013a1.686 1.686 0 00-1.524 1" fill="none" stroke="#000" stroke-width="2"/>
</svg>