<svg viewBox="0 0 24 24" xmlns="http://www.w3.org/2000/svg" fill-rule="evenodd" clip-rule="evenodd" stroke-linecap="round" stroke-linejoin="round" stroke-miterlimit="1.5">
  <path d="M13.448 2.105c-.96-.14-1.936-.14-2.896 0l-.358 2.102a7.984 7.984 0 00-2.427 1.005L6.027 3.98A9.979 9.979 0 003.98 6.027l1.232 1.74a7.984 7.984 0 00-1.005 2.427l-2.102.358c-.14.96-.14 1.936 0 2.896l2.102.358a7.984 7.984 0 001.005 2.427l-1.232 1.74a9.979 9.979 0 002.047 2.047l1.74-1.232a7.984 7.984 0 002.427 1.005l.358 2.102c.96.14 1.936.14 2.896 0l.358-2.102a7.984 7.984 0 002.427-1.005l1.74 1.232a9.979 9.979 0 002.047-2.047l-1.232-1.74a7.984 7.984 0 001.005-2.427l2.102-.358c.14-.96.14-1.936 0-2.896l-2.102-.358a7.984 7.984 0 00-1.005-2.427l1.232-1.74a9.979 9.979 0 00-2.047-2.047l-1.74 1.232a7.984 7.984 0 00-2.427-1.005l-.358-2.102z" fill="none" stroke="#000" stroke-width="2"/>
  <circle cx="12" cy="12" r="2.5" fill="none" stroke="#000" stroke-width="2"/>
</svg>