<svg viewBox="0 0 24 24" xmlns="http://www.w3.org/2000/svg" fill-rule="evenodd" clip-rule="evenodd" stroke-linecap="round" stroke-linejoin="round" stroke-miterlimit="1.5">
  <circle cx="12.009" cy="11.991" r="2.504" fill="none" stroke="#000" stroke-width="2"/>
  <path d="M21.002 16.397c.571-1.165.91-2.43.998-3.725l-1.486-1.037a8.51 8.51 0 00-.962-3.587l.769-1.642a10.025 10.025 0 00-2.727-2.727l-1.642.769a8.51 8.51 0 00-3.587-.962L11.328 2c-1.295.088-2.56.427-3.725.998l-.155 1.806A8.527 8.527 0 004.821 7.43l-1.806.156a10.043 10.043 0 00-.998 3.724l1.487 1.038a8.51 8.51 0 00.961 3.587l-.768 1.642a9.99 9.99 0 002.726 2.726l1.642-.768a8.51 8.51 0 003.587.961l1.038 1.487a10.043 10.043 0 003.724-.998l.156-1.806a8.527 8.527 0 002.626-2.627l1.806-.155z" fill="none" stroke="#000" stroke-width="2"/>
</svg>