<svg viewBox="0 0 24 24" xmlns="http://www.w3.org/2000/svg" fill-rule="evenodd" clip-rule="evenodd" stroke-linecap="round" stroke-linejoin="round" stroke-miterlimit="1.5">
  <circle cx="9.5" cy="14.5" r="1.875" fill="none" stroke="#000" stroke-width="2"/>
  <path d="M16.235 17.8c.428-.873.682-1.82.748-2.79l-1.114-.777a6.383 6.383 0 00-.719-2.687l.575-1.229a7.488 7.488 0 00-2.042-2.042l-1.229.575a6.383 6.383 0 00-2.687-.719L8.99 7.017c-.97.066-1.917.32-2.79.748l-.116 1.352a6.388 6.388 0 00-1.967 1.967l-1.352.116a7.491 7.491 0 00-.748 2.79l1.114.777c.039.938.285 1.855.719 2.687l-.575 1.229a7.488 7.488 0 002.042 2.042l1.229-.575c.832.434 1.749.68 2.687.719l.777 1.114a7.491 7.491 0 002.79-.748l.116-1.352a6.388 6.388 0 001.967-1.967l1.352-.116zM19.5 13.5c.34-.336.142-.195.4-.601l1.353-.117c.427-.872.681-1.82.747-2.789l-1.113-.777a6.384 6.384 0 00-.72-2.687l.575-1.229A7.488 7.488 0 0018.7 3.258l-1.229.575a6.384 6.384 0 00-2.687-.72L14.007 2a7.504 7.504 0 00-2.789.747L11.101 4.1c-.4.254-.269.066-.601.4" fill="none" stroke="#000" stroke-width="2"/>
</svg>