<svg viewBox="0 0 24 24" xmlns="http://www.w3.org/2000/svg" fill-rule="evenodd" clip-rule="evenodd" stroke-linecap="round" stroke-linejoin="round" stroke-miterlimit="1.5">
  <path d="M10.014 8.074a6.961 6.961 0 00-2.028 0l-.25 1.471a5.59 5.59 0 00-1.699.703l-1.218-.862a6.952 6.952 0 00-1.433 1.433l.862 1.218a5.59 5.59 0 00-.703 1.699l-1.471.25a6.961 6.961 0 000 2.028l1.471.25a5.59 5.59 0 00.703 1.699l-.862 1.218a6.952 6.952 0 001.433 1.433l1.218-.862a5.59 5.59 0 001.699.703l.25 1.471a6.961 6.961 0 002.028 0l.25-1.471a5.59 5.59 0 001.699-.703l1.218.862a6.952 6.952 0 001.433-1.433l-.862-1.218a5.59 5.59 0 00.703-1.699l1.471-.25a6.961 6.961 0 000-2.028l-1.471-.25a5.59 5.59 0 00-.703-1.699l.862-1.218a6.952 6.952 0 00-1.433-1.433l-1.218.862a5.59 5.59 0 00-1.699-.703l-.25-1.471zM18.32 12.714l1.11.786c.497-.37.937-.81 1.307-1.307l-.787-1.11c.298-.477.515-1 .642-1.549l1.341-.228a6.429 6.429 0 000-1.848l-1.341-.229a5.096 5.096 0 00-.642-1.549l.787-1.11a6.374 6.374 0 00-1.307-1.307l-1.11.787a5.096 5.096 0 00-1.549-.642l-.229-1.341a6.429 6.429 0 00-1.848 0l-.228 1.341a5.086 5.086 0 00-1.549.642l-1.11-.787c-.497.37-.937.81-1.307 1.307l.786 1.11" fill="none" stroke="#000" stroke-width="2"/>
  <circle cx="9" cy="15" r="1.5" fill="none" stroke="#000" stroke-width="2"/>
  <path d="M14.707 7.014c.258-.18.572-.228.911-.228.881 0 1.596.715 1.596 1.596 0 .339-.048.653-.228.911" fill="none" stroke="#000" stroke-width="2"/>
</svg>