<svg viewBox="0 0 24 24" xmlns="http://www.w3.org/2000/svg" fill-rule="evenodd" clip-rule="evenodd" stroke-linecap="round" stroke-linejoin="round" stroke-miterlimit="1.5">
  <path d="M4 14c.276-.219 1.404-1.129 1.5-1.205.703-.553.785-.757 1.5-1.295 1.787-1.344 3.988-3.468 5-5.5.324-.65 1.177-2.512-.34-3.647-.673-.503-1.489-.481-2.16.147-1.155 1.081-1.673 2.77-2.103 4.243-1.296 4.438-1.504 9.25 1.296 13.188.34.479.742.922 1.205 1.286 3.271 2.572 5.41-1.805 6.369-4.327.317-.834.574-1.696.928-2.516.055-.129.213-.617.393-.645.118-.018.051.587.048.637-.044.664-.088 1.33-.099 1.996-.025 1.639-.11 5.912 2.463 5.638" fill="none" stroke="#000" stroke-width="2"/>
  <circle cx="18.033" cy="9.467" r="1.533"/>
</svg>