<?xml version="1.0" encoding="UTF-8" standalone="no"?><!DOCTYPE svg PUBLIC "-//W3C//DTD SVG 1.1//EN" "http://www.w3.org/Graphics/SVG/1.1/DTD/svg11.dtd"><svg width="100%" height="100%" viewBox="0 0 7084 2917" version="1.1" xmlns="http://www.w3.org/2000/svg" xmlns:xlink="http://www.w3.org/1999/xlink" xml:space="preserve" xmlns:serif="http://www.serif.com/" style="fill-rule:evenodd;clip-rule:evenodd;stroke-linecap:round;stroke-linejoin:round;stroke-miterlimit:1.5;"><rect id="banner-random-1" x="0" y="0" width="7083.33" height="2916.67" style="fill:none;"/><rect x="0" y="0" width="7083.33" height="2916.67" style="fill:#fff;"/><path d="M798.611,1527.78l0,-52.083c0,-9.209 -3.658,-18.041 -10.17,-24.553c-6.512,-6.512 -15.343,-10.17 -24.552,-10.17c-66.528,0 -211.25,0 -277.778,0c-9.209,0 -18.04,3.658 -24.552,10.17c-6.512,6.512 -10.17,15.344 -10.17,24.553c-0,24.169 -0,52.083 -0,52.083l52.083,-0" style="fill:none;stroke:#000;stroke-width:34.72px;"/><path d="M798.611,1527.78l-52.083,-0" style="fill:none;stroke:#000;stroke-width:34.72px;"/><circle cx="538.194" cy="1536.46" r="34.722" style="fill:none;stroke:#000;stroke-width:34.72px;stroke-linecap:butt;"/><circle cx="711.806" cy="1536.46" r="34.722" style="fill:none;stroke:#000;stroke-width:34.72px;stroke-linecap:butt;"/><path d="M581.597,1527.78l86.806,-0" style="fill:none;stroke:#000;stroke-width:34.72px;"/><path d="M729.167,1440.97l-52.084,-95.486l-156.25,0l-34.722,95.486" style="fill:none;stroke:#000;stroke-width:34.72px;"/><path d="M581.597,1440.97l0,-95.486" style="fill:none;stroke:#000;stroke-width:34.72px;"/><path d="M1597.22,2187.5l-312.5,-0l0,208.333l312.5,0l0,-52.083l34.722,0l0,-104.167l-34.722,0l0,-52.083Z" style="fill:none;stroke:#000;stroke-width:34.72px;"/><rect x="1336.81" y="2239.58" width="86.806" height="104.167" style="stroke:#000;stroke-width:34.72px;"/><rect x="4622.24" y="1302.08" width="347.222" height="86.806" style="fill:none;stroke:#000;stroke-width:34.72px;"/><path d="M4934.74,1388.89l0,225.694l-277.778,0l0,-225.694" style="fill:none;stroke:#000;stroke-width:34.72px;"/><path d="M4743.77,1458.33l104.167,0" style="fill:none;stroke:#000;stroke-width:34.72px;"/><path d="M2291.67,1510.42l-121.528,121.527l243.055,0l-121.527,-121.527Z" style="fill:none;stroke:#000;stroke-width:34.72px;"/><path d="M2187.5,1545.14l-34.722,-0c-9.209,-0 -18.041,-3.658 -24.553,-10.17c-6.511,-6.512 -10.169,-15.344 -10.169,-24.552c-0,-49.841 -0,-141.132 -0,-190.972c-0,-9.209 3.658,-18.041 10.17,-24.553c6.511,-6.512 15.343,-10.17 24.552,-10.17c66.528,0 211.249,0 277.777,0c9.209,0 18.041,3.658 24.553,10.17c6.512,6.512 10.17,15.344 10.17,24.553c-0,49.84 -0,141.131 -0,190.972c-0,9.208 -3.658,18.04 -10.17,24.552c-6.512,6.512 -15.344,10.17 -24.552,10.17c-17.362,-0 -34.723,-0 -34.723,-0" style="fill:none;stroke:#000;stroke-width:34.72px;"/><path d="M3246.53,1336.81l-98.209,98.209" style="fill:none;stroke:#000;stroke-width:34.72px;"/><path d="M3003.47,1579.86l98.209,-98.209" style="fill:none;stroke:#000;stroke-width:34.72px;"/><path d="M3246.53,1405.55l-0,-68.746l-68.747,-0" style="fill:none;stroke:#000;stroke-width:34.72px;"/><path d="M3003.47,1511.12l0,68.746l68.747,0" style="fill:none;stroke:#000;stroke-width:34.72px;"/><circle cx="3125" cy="625" r="173.611" style="fill:none;stroke:#000;stroke-width:34.72px;"/><path d="M3051.34,698.657l147.314,-147.314" style="fill:none;stroke:#000;stroke-width:34.72px;"/><path d="M3051.34,629.91l0,68.747l68.747,-0" style="fill:none;stroke:#000;stroke-width:34.72px;"/><path d="M4895.83,625l-208.333,0" style="fill:none;stroke:#000;stroke-width:34.72px;"/><path d="M4965.28,538.194c-0,-47.909 -38.896,-86.805 -86.806,-86.805l-173.611,-0c-47.909,-0 -86.805,38.896 -86.805,86.805l-0,173.612c-0,47.909 38.896,86.805 86.805,86.805l173.611,0c47.91,0 86.806,-38.896 86.806,-86.805l-0,-173.612Z" style="fill:none;stroke:#000;stroke-width:34.72px;"/><path d="M4847.22,673.611l48.611,-48.611l-48.611,-48.611" style="fill:none;stroke:#000;stroke-width:34.72px;"/><path d="M5625,1336.81l0,243.055" style="fill:none;stroke:#000;stroke-width:34.72px;"/><path d="M5673.61,1385.42l-48.611,-48.611l-48.611,48.611" style="fill:none;stroke:#000;stroke-width:34.72px;"/><circle cx="3958.33" cy="677.083" r="121.528" style="fill:none;stroke:#000;stroke-width:34.72px;"/><path d="M3958.33,555.556l-69.444,-104.167l-104.167,-0l86.806,138.889" style="fill:none;stroke:#000;stroke-width:34.72px;"/><path d="M3958.33,555.556l69.445,-104.167l104.166,-0l-86.805,138.889" style="fill:none;stroke:#000;stroke-width:34.72px;"/><path d="M3932.29,659.722l34.722,-34.722l-0,104.167" style="fill:none;stroke:#000;stroke-width:34.72px;"/><circle cx="1458.33" cy="1388.89" r="104.167" style="fill:none;stroke:#000;stroke-width:34.72px;"/><path d="M1388.89,1475.69l-17.361,156.25l86.805,-52.083l86.806,52.083l-17.361,-156.25" style="fill:none;stroke:#000;stroke-width:34.72px;"/><path d="M572.219,503.472l-68.747,0l0,68.747" style="fill:none;stroke:#000;stroke-width:34.72px;"/><path d="M677.781,746.528l68.747,-0l-0,-68.747" style="fill:none;stroke:#000;stroke-width:34.72px;"/><path d="M746.528,572.219l-0,-68.747l-68.747,0" style="fill:none;stroke:#000;stroke-width:34.72px;"/><path d="M503.472,677.781l0,68.747l68.747,-0" style="fill:none;stroke:#000;stroke-width:34.72px;"/><path d="M625,2118.06c-95.819,-0 -173.611,77.792 -173.611,173.611" style="fill:none;stroke:#000;stroke-width:34.72px;"/><path d="M520.135,2361.11l-68.746,0l-0,68.747" style="fill:none;stroke:#000;stroke-width:34.72px;"/><path d="M729.865,2222.22l68.746,0l0,-68.746" style="fill:none;stroke:#000;stroke-width:34.72px;"/><path d="M625,2465.28c95.819,-0 173.611,-77.793 173.611,-173.611" style="fill:none;stroke:#000;stroke-width:34.72px;"/><path d="M784.144,2222.22c-26.812,-61.293 -88.011,-104.166 -159.144,-104.166" style="fill:none;stroke:#000;stroke-width:34.72px;"/><path d="M465.856,2361.11c26.812,61.294 88.011,104.167 159.144,104.167" style="fill:none;stroke:#000;stroke-width:34.72px;"/><path d="M2291.67,2118.06l-0,138.888" style="fill:none;stroke:#000;stroke-width:34.72px;"/><path d="M2291.67,2465.28l-0,-138.889" style="fill:none;stroke:#000;stroke-width:34.72px;"/><path d="M2340.28,2166.67l-48.611,-48.611l-48.611,48.611" style="fill:none;stroke:#000;stroke-width:34.72px;"/><path d="M2243.06,2416.67l48.611,48.611l48.611,-48.611" style="fill:none;stroke:#000;stroke-width:34.72px;"/><path d="M2465.28,2291.67l-138.889,-0" style="fill:none;stroke:#000;stroke-width:34.72px;"/><path d="M2118.06,2291.67l138.888,-0" style="fill:none;stroke:#000;stroke-width:34.72px;"/><path d="M2416.67,2340.28l48.611,-48.611l-48.611,-48.611" style="fill:none;stroke:#000;stroke-width:34.72px;"/><path d="M2166.67,2243.06l-48.611,48.611l48.611,48.611" style="fill:none;stroke:#000;stroke-width:34.72px;"/><path d="M5710.93,612.724l36.829,-36.829c20.326,-20.326 20.326,-53.33 -0,-73.657c-20.327,-20.326 -53.331,-20.326 -73.657,0l-73.657,73.657c-20.327,20.327 -20.327,53.331 -0,73.657" style="fill:none;stroke:#000;stroke-width:34.72px;"/><path d="M5539.07,637.276l-36.829,36.829c-20.326,20.326 -20.326,53.33 0,73.657c20.327,20.326 53.331,20.326 73.657,-0l73.657,-73.657c20.327,-20.327 20.327,-53.331 0,-73.657" style="fill:none;stroke:#000;stroke-width:34.72px;"/><path d="M3958.33,1284.72l0,347.222" style="fill:none;stroke:#000;stroke-width:34.72px;"/><path d="M4062.5,1284.72l-0,347.222" style="fill:none;stroke:#000;stroke-width:34.72px;"/><path d="M3854.17,1284.72l-0,347.222" style="fill:none;stroke:#000;stroke-width:34.72px;"/><path d="M3880.21,1423.61l-52.083,0l-0,17.361l52.083,0l0,-17.361Z" style="fill:none;stroke:#000;stroke-width:34.72px;"/><path d="M3984.38,1545.14l-52.083,-0l-0,17.361l52.083,0l-0,-17.361Z" style="fill:none;stroke:#000;stroke-width:34.72px;"/><path d="M4088.54,1328.12l-52.084,0l0,17.361l52.084,0l-0,-17.361Z" style="fill:none;stroke:#000;stroke-width:34.72px;"/><rect x="2118.06" y="503.472" width="347.222" height="243.056" style="fill:none;stroke:#000;stroke-width:34.72px;"/><rect x="2378.47" y="555.556" width="34.722" height="52.083" style="fill:none;stroke:#000;stroke-width:34.72px;"/><path d="M2170.14,694.444l121.528,0" style="fill:none;stroke:#000;stroke-width:34.72px;"/><path d="M2170.14,642.361l69.444,0" style="fill:none;stroke:#000;stroke-width:34.72px;"/><circle cx="1527.78" cy="555.556" r="104.167" style="fill:none;stroke:#000;stroke-width:34.72px;"/><circle cx="1558.16" cy="525.174" r="21.701" style="fill:none;stroke:#000;stroke-width:34.72px;"/><path d="M1423.61,590.278l-34.722,34.722l-0,34.722l-34.722,0l-0,34.722l-34.723,0l0,34.723l-34.722,-0l0,69.444l69.445,0l-0,-34.722l34.722,-0l-0,-34.722l34.722,-0l0,-34.723l34.722,0l34.723,-34.722" style="fill:none;stroke:#000;stroke-width:34.72px;"/><circle cx="3958.33" cy="2161.46" r="43.403" style="fill:none;stroke:#000;stroke-width:34.72px;"/><path d="M3958.33,2361.11l0,-156.25" style="fill:none;stroke:#000;stroke-width:34.72px;"/><path d="M3871.53,2309.03l86.805,-69.445l86.806,69.445" style="fill:none;stroke:#000;stroke-width:34.72px;"/><path d="M3888.89,2465.28l69.444,-104.167l69.445,104.167" style="fill:none;stroke:#000;stroke-width:34.72px;"/><path d="M3298.61,2361.11l0,-52.083c0,-9.209 -3.658,-18.041 -10.17,-24.553c-6.512,-6.511 -15.343,-10.17 -24.552,-10.169c-66.528,-0 -211.25,-0 -277.778,-0c-9.209,-0.001 -18.04,3.658 -24.552,10.169c-6.512,6.512 -10.17,15.344 -10.17,24.553c-0,24.169 -0,52.083 -0,52.083l52.083,0" style="fill:none;stroke:#000;stroke-width:34.72px;"/><path d="M3298.61,2361.11l-52.083,0" style="fill:none;stroke:#000;stroke-width:34.72px;"/><circle cx="3038.19" cy="2369.79" r="34.722" style="fill:none;stroke:#000;stroke-width:34.72px;stroke-linecap:butt;"/><circle cx="3211.81" cy="2369.79" r="34.722" style="fill:none;stroke:#000;stroke-width:34.72px;stroke-linecap:butt;"/><path d="M3081.6,2361.11l86.806,0" style="fill:none;stroke:#000;stroke-width:34.72px;"/><path d="M3229.17,2274.31l-52.084,-95.487" style="fill:none;stroke:#000;stroke-width:34.72px;"/><path d="M3072.92,2222.22l-60.764,8.681l-26.042,43.403" style="fill:none;stroke:#000;stroke-width:34.72px;"/><path d="M3081.6,2274.31l-8.68,-52.084" style="fill:none;stroke:#000;stroke-width:34.72px;"/><ellipse cx="4751.58" cy="2335.07" rx="33.207" ry="32.552" style="fill:none;stroke:#000;stroke-width:35.07px;"/><path d="M4870.86,2392.35c7.571,-15.149 12.066,-31.597 13.237,-48.427l-19.716,-13.491c-0.696,-16.278 -5.049,-32.204 -12.749,-46.642l10.193,-21.347c-9.598,-14.002 -21.88,-26.042 -36.164,-35.451l-21.776,9.992c-14.728,-7.548 -30.975,-11.815 -47.58,-12.498l-13.762,-19.326c-17.169,1.147 -33.947,5.554 -49.401,12.976l-2.061,23.483c-14.032,8.729 -25.925,20.388 -34.83,34.144l-23.956,2.02c-7.57,15.149 -12.066,31.597 -13.237,48.427l19.716,13.491c0.696,16.278 5.049,32.204 12.749,46.642l-10.193,21.347c9.598,14.002 21.88,26.042 36.164,35.451l21.776,-9.992c14.728,7.548 30.975,11.815 47.58,12.497l13.762,19.327c17.169,-1.147 33.947,-5.554 49.401,-12.976l2.061,-23.483c14.032,-8.729 25.925,-20.388 34.831,-34.144l23.955,-2.02Z" style="fill:none;stroke:#000;stroke-width:35.25px;"/><path d="M4919.83,2326.66c6.022,-5.837 11.373,-12.339 15.938,-19.391l23.955,-2.02c7.571,-15.149 12.067,-31.597 13.238,-48.427l-19.716,-13.491c-0.696,-16.278 -5.049,-32.204 -12.749,-46.642l10.193,-21.347c-9.598,-14.002 -21.88,-26.042 -36.164,-35.451l-21.776,9.992c-14.728,-7.548 -30.975,-11.815 -47.58,-12.498l-13.762,-19.326c-17.169,1.147 -33.947,5.554 -49.401,12.976l-2.061,23.483c-7.084,4.407 -13.623,9.56 -19.507,15.353" style="fill:none;stroke:#000;stroke-width:35.25px;"/><path d="M5659.72,2361.66c-10.462,5.205 -22.253,8.133 -34.722,8.133c-43.118,-0 -78.125,-35.007 -78.125,-78.125c0,-43.119 35.007,-78.125 78.125,-78.125c43.118,-0 78.125,35.006 78.125,78.125c0,-0 0,-0.24 0,17.361c0,66.497 63.863,75.544 86.806,43.403c10.795,-15.124 8.68,-40.512 8.68,-60.764c0,-95.819 -77.792,-173.611 -173.611,-173.611c-95.819,-0 -173.611,77.792 -173.611,173.611c-0,95.818 77.792,173.611 173.611,173.611c41.525,-0 81.515,-14.877 112.847,-41.678" style="fill:none;stroke:#000;stroke-width:34.72px;"/><circle cx="6458.33" cy="494.792" r="43.403" style="fill:none;stroke:#000;stroke-width:34.72px;"/><path d="M6458.33,694.444l0,-156.25" style="fill:none;stroke:#000;stroke-width:34.72px;"/><path d="M6545.14,529.514l-86.806,69.444l-86.805,-69.444" style="fill:none;stroke:#000;stroke-width:34.72px;"/><path d="M6388.89,798.611l69.444,-104.167l69.445,104.167" style="fill:none;stroke:#000;stroke-width:34.72px;"/><circle cx="6458.33" cy="2170.14" r="52.083" style="fill:none;stroke:#000;stroke-width:34.72px;"/><circle cx="6527.78" cy="2256.94" r="8.681" style="fill:none;stroke:#000;stroke-width:34.72px;"/><circle cx="6388.89" cy="2256.94" r="8.681" style="fill:none;stroke:#000;stroke-width:34.72px;"/><path d="M6597.22,2326.39c0,76.655 -62.234,138.889 -138.889,138.889c-76.655,-0 -138.889,-62.234 -138.889,-138.889" style="fill:none;stroke:#000;stroke-width:34.72px;"/><path d="M6458.33,2465.28l0,-243.056" style="fill:none;stroke:#000;stroke-width:34.72px;"/><path d="M6388.89,2256.94l138.889,0" style="fill:none;stroke:#000;stroke-width:34.72px;"/><path d="M6571.18,2369.79l34.722,-60.764l-0,60.764l-34.722,-0Z" style="fill:none;stroke:#000;stroke-width:34.72px;"/><path d="M6310.76,2369.79l-0,-60.764l34.722,60.764l-34.722,-0Z" style="fill:none;stroke:#000;stroke-width:34.72px;"/><path d="M6388.89,1354.17c-52.081,-0 -52.081,-0.003 -104.167,-0l0,208.333l104.167,0" style="fill:none;stroke:#000;stroke-width:34.72px;"/><path d="M6493.06,1562.5l104.166,0l0,-52.083l34.722,-0l0,-104.167l-34.722,0l0,-52.083c-52.08,-0.003 -52.08,-0 -104.166,-0" style="fill:none;stroke:#000;stroke-width:34.72px;"/><path d="M6440.97,1354.17l34.722,104.166l-69.444,0l34.722,104.167" style="fill:none;stroke:#000;stroke-width:34.72px;"/></svg>